<?xml version="1.0" standalone="no"?>
<!DOCTYPE svg PUBLIC "-//W3C//DTD SVG 20010904//EN"
 "http://www.w3.org/TR/2001/REC-SVG-20010904/DTD/svg10.dtd">
<svg version="1.0" xmlns="http://www.w3.org/2000/svg"
 width="775.000000pt" height="262.000000pt" viewBox="0 0 775.000000 262.000000"
 preserveAspectRatio="xMidYMid meet">

<g transform="translate(0.000000,262.000000) scale(0.100000,-0.100000)"
fill="#000000" stroke="none">
<path d="M0 1310 l0 -1310 3875 0 3875 0 0 1310 0 1310 -3875 0 -3875 0 0
-1310z m1336 967 c3 -8 -11 -46 -31 -85 -19 -39 -47 -121 -62 -182 -14 -61
-35 -123 -46 -136 -25 -32 -84 -70 -167 -106 l-65 -29 108 5 c59 3 107 2 107
-1 0 -14 -75 -213 -97 -258 -98 -196 -254 -363 -471 -504 -219 -143 -206 -130
-284 -279 -39 -73 -68 -136 -64 -139 3 -3 101 28 218 70 343 121 528 167 743
187 187 18 405 -12 389 -53 -3 -9 -57 -12 -212 -13 -284 -1 -417 -27 -839
-165 -226 -74 -301 -90 -330 -71 -22 14 24 275 82 462 100 320 255 613 444
842 71 86 114 127 231 221 34 26 33 26 -20 -4 -207 -117 -409 -329 -540 -565
-64 -115 -130 -276 -168 -409 -18 -63 -33 -100 -42 -100 -18 0 -47 91 -62 192
-20 140 15 342 87 499 110 239 322 432 602 544 160 64 475 113 489 77z m5321
-497 c28 -12 60 -31 70 -42 18 -20 17 -21 -25 -58 l-43 -39 -32 19 c-103 59
-237 17 -237 -74 0 -54 32 -79 156 -121 43 -15 98 -38 120 -51 122 -69 156
-197 80 -297 -49 -65 -112 -99 -194 -105 -100 -7 -170 16 -232 77 -28 26 -50
54 -50 63 0 9 20 23 52 35 l52 20 20 -25 c39 -49 145 -69 206 -37 35 18 70 61
70 87 0 35 -60 83 -135 108 -144 47 -223 99 -251 165 -17 40 -18 122 -3 162
13 34 64 90 101 109 75 39 190 41 275 4z m-4535 -273 l3 -294 171 291 172 291
71 3 71 3 0 -291 c0 -159 3 -290 8 -290 4 0 83 131 177 290 l170 290 68 0 c67
0 68 0 56 -22 -7 -13 -111 -191 -232 -396 l-220 -373 -71 3 -71 3 -5 286 -5
287 -142 -242 c-78 -132 -156 -263 -173 -289 l-30 -48 -68 3 -67 3 -3 393 -2
392 60 0 60 0 2 -293z m1402 281 c54 -16 131 -93 145 -144 27 -96 -6 -199 -80
-251 -21 -16 -39 -32 -39 -37 0 -5 38 -82 85 -171 47 -90 85 -166 85 -169 0
-3 -29 -6 -64 -6 l-65 0 -86 165 -86 165 -70 0 -69 0 0 -165 0 -166 -57 3 -58
3 -3 393 -2 392 161 0 c98 0 178 -5 203 -12z m386 -383 l0 -396 -57 3 -58 3
-3 393 -2 392 60 0 60 0 0 -395z m560 335 l0 -60 -85 0 -85 0 0 -335 0 -335
-60 0 -60 0 0 335 0 335 -85 0 -85 0 0 60 0 60 230 0 230 0 0 -60z m500 0 l0
-60 -140 0 -140 0 0 -105 0 -105 110 0 110 0 0 -60 0 -60 -110 0 -110 0 0
-105 0 -105 140 0 140 0 0 -65 0 -65 -197 2 -198 3 -3 393 -2 392 200 0 200 0
0 -60z m500 0 l0 -60 -140 0 -140 0 0 -105 0 -104 108 -3 107 -3 3 -57 3 -58
-111 0 -110 0 0 -105 0 -104 138 -3 137 -3 0 -60 0 -60 -197 -3 -198 -2 0 395
0 395 200 0 200 0 0 -60z m698 -332 l-3 -393 -57 -3 -57 -3 -3 93 -3 93 -131
3 -131 3 -61 -96 -61 -95 -67 0 c-57 0 -65 2 -60 16 6 17 459 737 479 762 6 7
36 12 83 12 l74 0 -2 -392z m1112 332 l0 -60 -140 0 -140 0 0 -105 0 -105 110
0 110 0 0 -60 0 -60 -110 0 -110 0 0 -105 0 -105 140 0 140 0 0 -65 0 -65
-197 2 -198 3 -3 393 -2 392 200 0 200 0 0 -60z"/>
<path d="M3280 1576 l0 -106 106 0 c116 0 136 6 159 50 23 45 19 85 -14 122
l-29 33 -111 3 -111 4 0 -106z"/>
<path d="M6013 1565 c-18 -27 -59 -93 -92 -145 l-61 -95 92 -3 c50 -1 92 -1
95 1 2 2 2 69 1 148 l-3 144 -32 -50z"/>
</g>
</svg>
