<?xml version="1.0" standalone="no"?>
<!DOCTYPE svg PUBLIC "-//W3C//DTD SVG 20010904//EN"
 "http://www.w3.org/TR/2001/REC-SVG-20010904/DTD/svg10.dtd">
<svg version="1.0" xmlns="http://www.w3.org/2000/svg"
 width="602.000000pt" height="195.000000pt" viewBox="0 0 602.000000 195.000000"
 preserveAspectRatio="xMidYMid meet">

<g transform="translate(0.000000,195.000000) scale(0.100000,-0.100000)"
fill="#000000" stroke="none">
<path d="M1065 1713 c-101 -13 -202 -37 -266 -64 -322 -132 -511 -392 -513
-704 -1 -101 26 -229 46 -223 5 2 28 62 52 134 25 72 58 158 74 191 80 158
220 328 347 423 98 72 109 73 32 1 -113 -106 -200 -223 -292 -395 -99 -182
-193 -478 -198 -620 -2 -70 -2 -71 24 -74 15 -2 111 24 214 58 314 102 459
130 677 130 65 0 118 4 118 9 0 18 -68 33 -172 38 -163 8 -310 -21 -600 -118
-130 -43 -240 -79 -243 -79 -4 0 19 49 51 108 l57 108 111 69 c161 100 314
254 380 383 43 85 86 191 86 215 0 6 -31 8 -78 5 l-77 -4 78 39 c42 21 84 49
93 62 8 12 26 64 39 114 14 50 34 109 45 131 36 70 26 78 -85 63z"/>
<path d="M5001 1346 c-101 -33 -148 -131 -105 -221 20 -42 69 -75 164 -111 41
-15 85 -37 98 -48 53 -47 2 -117 -87 -118 -40 0 -97 24 -103 44 -4 10 -13 10
-46 0 -23 -7 -42 -17 -42 -22 0 -4 12 -23 27 -41 79 -94 254 -91 328 5 80 105
21 209 -151 266 -80 27 -114 53 -114 89 0 65 99 101 172 63 l37 -19 27 28 c23
24 25 31 14 44 -37 45 -144 65 -219 41z"/>
<path d="M1670 1055 l0 -296 57 3 58 3 125 214 125 214 3 -217 2 -216 58 0 57
1 61 107 c34 59 112 191 172 295 l111 187 -52 0 -52 0 -130 -221 -130 -220 -3
220 -2 221 -54 0 -53 0 -129 -220 -129 -220 -3 220 -2 220 -45 0 -45 0 0 -295z"/>
<path d="M2550 1055 l0 -295 40 0 40 0 0 125 0 125 53 0 54 0 64 -122 64 -123
48 -3 c26 -2 47 0 47 4 0 4 -30 64 -66 133 -46 88 -61 127 -52 130 27 9 77 73
84 107 16 85 -24 172 -92 200 -23 9 -74 14 -159 14 l-125 0 0 -295z m267 183
c33 -31 32 -90 -3 -117 -22 -17 -41 -21 -105 -21 l-79 0 0 80 0 80 82 0 c70 0
85 -3 105 -22z"/>
<path d="M3020 1055 l0 -295 45 0 45 0 0 295 0 295 -45 0 -45 0 0 -295z"/>
<path d="M3182 1308 l3 -43 63 -3 62 -3 0 -249 0 -250 45 0 45 0 0 250 0 250
60 0 60 0 0 45 0 45 -171 0 -170 0 3 -42z"/>
<path d="M3610 1055 l0 -295 150 0 150 0 0 45 0 45 -110 0 -110 0 0 80 0 80
85 0 85 0 0 45 0 44 -82 3 -83 3 -3 77 -3 77 108 3 108 3 3 43 3 42 -150 0
-151 0 0 -295z"/>
<path d="M3980 1055 l0 -295 150 0 150 0 0 45 0 45 -105 0 -105 0 0 80 0 80
80 0 80 0 0 45 0 45 -80 0 -80 0 0 80 0 80 105 0 105 0 0 45 0 45 -150 0 -150
0 0 -295z"/>
<path d="M4539 1108 c-84 -134 -168 -267 -186 -295 l-34 -53 53 0 53 0 44 70
43 70 99 0 99 0 0 -70 0 -70 45 0 45 0 0 295 0 295 -54 0 -54 0 -153 -242z
m171 -13 l0 -105 -70 0 -69 0 66 105 c36 58 67 105 69 105 2 0 4 -47 4 -105z"/>
<path d="M5340 1055 l0 -295 150 0 150 0 0 45 0 45 -105 0 -105 0 0 80 0 80
80 0 80 0 0 45 0 45 -80 0 -80 0 0 80 0 80 105 0 105 0 0 45 0 45 -150 0 -150
0 0 -295z"/>
</g>
</svg>
